<mxfile host="app.diagrams.net" modified="2023-04-16T21:26:46.883Z" agent="Mozilla/5.0 (Windows NT 10.0; Win64; x64) AppleWebKit/537.36 (KHTML, like Gecko) Chrome/112.0.0.0 Safari/537.36" etag="iU1K1rgcVxbtuYGXVMdn" version="21.1.8" type="device">
  <diagram name="Página-1" id="0jmEjXWlIPbXuzItjXGt">
    <mxGraphModel dx="880" dy="452" grid="1" gridSize="10" guides="1" tooltips="1" connect="1" arrows="1" fold="1" page="1" pageScale="1" pageWidth="827" pageHeight="1169" math="0" shadow="0">
      <root>
        <mxCell id="0" />
        <mxCell id="1" parent="0" />
        <mxCell id="Vbry9BgwGbl86wyn81vc-4" value="Cliente: Browser" style="verticalAlign=top;align=left;spacingTop=8;spacingLeft=2;spacingRight=12;shape=cube;size=10;direction=south;fontStyle=4;html=1;" vertex="1" parent="1">
          <mxGeometry x="197.5" y="730" width="240" height="160" as="geometry" />
        </mxCell>
        <mxCell id="Vbry9BgwGbl86wyn81vc-5" value="Servidor: Aplicação" style="verticalAlign=top;align=left;spacingTop=8;spacingLeft=2;spacingRight=12;shape=cube;size=10;direction=south;fontStyle=4;html=1;" vertex="1" parent="1">
          <mxGeometry x="160" y="950" width="320" height="190" as="geometry" />
        </mxCell>
        <mxCell id="Vbry9BgwGbl86wyn81vc-6" value="Banco de dados" style="verticalAlign=top;align=left;spacingTop=8;spacingLeft=2;spacingRight=12;shape=cube;size=10;direction=south;fontStyle=4;html=1;" vertex="1" parent="1">
          <mxGeometry x="236" y="1200" width="177.5" height="120" as="geometry" />
        </mxCell>
        <mxCell id="Vbry9BgwGbl86wyn81vc-7" value="Interface gráfica" style="shape=module;align=left;spacingLeft=20;align=center;verticalAlign=top;" vertex="1" parent="1">
          <mxGeometry x="245" y="790" width="135" height="50" as="geometry" />
        </mxCell>
        <mxCell id="Vbry9BgwGbl86wyn81vc-9" value="" style="endArrow=none;html=1;rounded=0;exitX=0;exitY=0;exitDx=0;exitDy=83.75;exitPerimeter=0;" edge="1" parent="1" source="Vbry9BgwGbl86wyn81vc-6">
          <mxGeometry width="50" height="50" relative="1" as="geometry">
            <mxPoint x="507.5" y="1070" as="sourcePoint" />
            <mxPoint x="330" y="1140" as="targetPoint" />
            <Array as="points">
              <mxPoint x="330" y="1150" />
            </Array>
          </mxGeometry>
        </mxCell>
        <mxCell id="Vbry9BgwGbl86wyn81vc-10" value="" style="endArrow=none;html=1;rounded=0;entryX=0;entryY=0;entryDx=160;entryDy=125;entryPerimeter=0;exitX=-0.012;exitY=0.52;exitDx=0;exitDy=0;exitPerimeter=0;" edge="1" parent="1" source="Vbry9BgwGbl86wyn81vc-5" target="Vbry9BgwGbl86wyn81vc-4">
          <mxGeometry width="50" height="50" relative="1" as="geometry">
            <mxPoint x="247.5" y="970" as="sourcePoint" />
            <mxPoint x="297.5" y="920" as="targetPoint" />
          </mxGeometry>
        </mxCell>
        <mxCell id="Vbry9BgwGbl86wyn81vc-11" value="Usuarios" style="shape=module;align=left;spacingLeft=20;align=center;verticalAlign=top;" vertex="1" parent="1">
          <mxGeometry x="180" y="1000" width="100" height="50" as="geometry" />
        </mxCell>
        <mxCell id="Vbry9BgwGbl86wyn81vc-12" value="Gerenciamento de carteira&#xa;" style="shape=module;align=left;spacingLeft=20;align=center;verticalAlign=top;" vertex="1" parent="1">
          <mxGeometry x="287.5" y="1000" width="172.5" height="50" as="geometry" />
        </mxCell>
        <mxCell id="Vbry9BgwGbl86wyn81vc-13" value="Gerenciamento de empresa parceira" style="shape=module;align=left;spacingLeft=20;align=center;verticalAlign=top;" vertex="1" parent="1">
          <mxGeometry x="180" y="1060" width="230" height="50" as="geometry" />
        </mxCell>
        <mxCell id="Vbry9BgwGbl86wyn81vc-14" style="edgeStyle=orthogonalEdgeStyle;rounded=0;orthogonalLoop=1;jettySize=auto;html=1;dashed=1;" edge="1" parent="1" source="Vbry9BgwGbl86wyn81vc-15" target="Vbry9BgwGbl86wyn81vc-5">
          <mxGeometry relative="1" as="geometry" />
        </mxCell>
        <mxCell id="Vbry9BgwGbl86wyn81vc-15" value="&lt;&lt;library&gt;&gt;&#xa;Email&#xa;" style="shape=module;align=left;spacingLeft=20;align=center;verticalAlign=top;" vertex="1" parent="1">
          <mxGeometry x="520" y="1018.5" width="106" height="53" as="geometry" />
        </mxCell>
        <mxCell id="Vbry9BgwGbl86wyn81vc-16" value="API REST" style="text;html=1;align=center;verticalAlign=middle;resizable=0;points=[];autosize=1;strokeColor=none;fillColor=none;" vertex="1" parent="1">
          <mxGeometry x="236" y="910" width="80" height="30" as="geometry" />
        </mxCell>
        <mxCell id="Vbry9BgwGbl86wyn81vc-17" value="ODBC" style="text;html=1;align=center;verticalAlign=middle;resizable=0;points=[];autosize=1;strokeColor=none;fillColor=none;" vertex="1" parent="1">
          <mxGeometry x="277.5" y="1160" width="60" height="30" as="geometry" />
        </mxCell>
      </root>
    </mxGraphModel>
  </diagram>
</mxfile>
